<?xml version="1.0" encoding="utf-8"?>
<!-- Generator: Adobe Illustrator 23.0.0, SVG Export Plug-In . SVG Version: 6.00 Build 0)  -->
<svg version="1.1" id="Layer_1" xmlns="http://www.w3.org/2000/svg" xmlns:xlink="http://www.w3.org/1999/xlink" x="0px" y="0px"
	 viewBox="0 0 33.8 32" style="enable-background:new 0 0 33.8 32;" xml:space="preserve">
<style type="text/css">
	.st0{fill:#FFFFFF;}
</style>
<path class="st0" d="M5.2,28c-0.6,0.1-1.3,0.1-1.9,0.2c0-1.6,0-3.2,0-4.7c-0.3,0-0.7,0-1,0c0,2,0,3.9,0,5.9c1-0.1,1.9-0.3,2.9-0.4
	C5.2,28.7,5.2,28.4,5.2,28z"/>
<path class="st0" d="M9.2,27.7c-0.7,0-1.4,0.1-2.2,0.1c0-0.4,0-0.8,0-1.2c0.5,0,1-0.1,1.4-0.1c0-0.3,0-0.7,0-1c-0.5,0-1,0-1.4,0.1
	c0-0.4,0-0.8,0-1.2c0.7,0,1.4,0,2.1,0c0-0.3,0-0.6,0-1c-1,0-2.1,0-3.1,0c0,1.8,0,3.6,0,5.4c1.1-0.1,2.1-0.2,3.2-0.3
	C9.2,28.3,9.2,28,9.2,27.7z"/>
<path class="st0" d="M12.1,23.5c0,1.1,0,2.2,0,3.3c0,0.7-0.4,0.8-0.7,0.8c-0.3,0-0.6-0.1-0.7-0.3c-0.2,0.2-0.4,0.5-0.6,0.7
	c0.3,0.3,0.8,0.6,1.4,0.5c0.7,0,1.6-0.5,1.6-1.8c0-1.1,0-2.2,0-3.3C12.7,23.5,12.4,23.5,12.1,23.5z"/>
<path class="st0" d="M17.4,27.5c-0.7,0-1.4,0-2.2,0c0-0.4,0-0.7,0-1.1c0.5,0,1,0,1.4,0c0-0.3,0-0.6,0-0.9c-0.5,0-1,0-1.4,0
	c0-0.4,0-0.7,0-1.1c0.7,0,1.4,0,2.1,0c0-0.3,0-0.6,0-0.9c-1,0-2.1,0-3.1,0c0,1.6,0,3.3,0,4.9c1.1,0,2.1,0,3.2,0
	C17.4,28.1,17.4,27.8,17.4,27.5z"/>
<path class="st0" d="M22.2,26.7c0-1.1,0-2.1,0-3.2c-0.3,0-0.6,0-1,0c0,1.1,0,2.1,0,3.2c0,0.7-0.5,0.9-0.9,0.9c-0.4,0-0.9-0.3-0.9-1
	c0-1,0-2.1,0-3.1c-0.3,0-0.6,0-1,0c0,1,0,2.1,0,3.1c0,1.1,0.9,1.8,1.9,1.9C21.3,28.5,22.2,27.9,22.2,26.7z"/>
<path class="st0" d="M27.1,28.9C27.2,28.9,27.2,28.9,27.1,28.9c0-1.8,0-3.6,0-5.4c-0.3,0-0.7,0-1,0c0,1,0,1.9,0,2.9
	c-0.9-1-1.9-2-2.8-2.9c0,0,0,0,0,0c0,1.7,0,3.4,0,5.1c0.3,0,0.7,0,1,0.1c0-0.9,0-1.9,0-2.8C25.3,26.8,26.2,27.8,27.1,28.9z"/>
<path class="st0" d="M31.6,29.4c0-0.4,0-0.7,0-1.1c-0.7-0.1-1.4-0.2-2.2-0.2c0-0.4,0-0.8,0-1.2c0.5,0,1,0.1,1.4,0.1
	c0-0.4,0-0.7,0-1.1c-0.5,0-1-0.1-1.4-0.1c0-0.4,0-0.8,0-1.2c0.7,0,1.4,0,2.1,0.1c0-0.4,0-0.7,0-1.1c-1,0-2.1,0-3.1,0
	c0,1.8,0,3.7,0,5.5C29.4,29.1,30.5,29.3,31.6,29.4z"/>
<polygon class="st0" points="12.4,22.4 12.4,20.5 12,20.5 11.4,21.8 10.8,20.5 10.4,20.5 10.4,22.4 10.8,22.4 10.8,21.4 11.2,22.4 
	11.6,22.4 12,21.4 12,22.4 "/>
<path class="st0" d="M14.6,22.4H15l-0.9-1.9h0l-0.9,1.9h0.4l0.1-0.3h0.8L14.6,22.4z M13.9,21.8l0.2-0.5l0.2,0.5H13.9z"/>
<rect x="15.8" y="20.5" class="st0" width="0.4" height="1.9"/>
<path class="st0" d="M18.4,21.9c0-0.3-0.2-0.5-0.6-0.6l-0.1,0c-0.2-0.1-0.2-0.1-0.2-0.2c0-0.1,0.1-0.2,0.2-0.2c0.1,0,0.2,0,0.3,0.1
	l0.4-0.1c-0.1-0.2-0.3-0.4-0.6-0.4c-0.3,0-0.6,0.2-0.6,0.5c0,0.3,0.2,0.5,0.5,0.6l0.1,0c0.2,0.1,0.3,0.1,0.3,0.3
	c0,0.2-0.1,0.2-0.3,0.2c-0.2,0-0.3-0.1-0.4-0.2L17,22c0.1,0.3,0.4,0.4,0.7,0.4C18,22.4,18.4,22.3,18.4,21.9z"/>
<path class="st0" d="M19.1,21.4c0,0.6,0.5,1,1,1c0.5,0,1-0.4,1-1c0-0.6-0.5-1-1-1C19.6,20.5,19.1,20.9,19.1,21.4z M20.6,21.4
	c0,0.3-0.2,0.6-0.5,0.6c-0.3,0-0.5-0.2-0.5-0.6c0-0.3,0.2-0.6,0.5-0.6C20.4,20.9,20.6,21.1,20.6,21.4z"/>
<polygon class="st0" points="23.4,22.4 23.4,20.5 23,20.5 23,21.5 21.9,20.5 21.9,20.5 21.9,22.4 22.3,22.4 22.3,21.4 23.4,22.4 "/>
<path class="st0" d="M16.9,18.7c4.6,0,8.4-3.8,8.4-8.4c0-4.6-3.8-8.4-8.4-8.4c-4.6,0-8.4,3.8-8.4,8.4C8.5,15,12.3,18.7,16.9,18.7z
	 M19.6,11.8h-0.7v1.9c0,0.4-0.3,0.7-0.7,0.7h-2.5c-0.4,0-0.7-0.3-0.7-0.7v-1.9h-0.7v-0.2h1.1v2.1c0,0.1,0.1,0.3,0.3,0.3h2.5
	c0.1,0,0.3-0.1,0.3-0.3v-2.1h1.1V11.8z M16.3,11.3L16.3,11.3l-0.2,0l0,0c-0.1-0.3-0.1-0.7,0-1.1c0-0.1,0.1-0.3,0.1-0.4l0,0l0.2,0
	l0,0c0,0.2,0,0.3-0.1,0.5C16.1,10.6,16.2,11.1,16.3,11.3z M16.8,9L16.8,9L17,9l0,0c0.1,0.2,0.1,0.7,0,1.2c-0.1,0.5,0,0.9,0,1.1l0,0
	h-0.2l0,0c-0.1-0.2-0.1-0.7,0-1.1C17,9.6,16.8,9.1,16.8,9z M17.7,9.4L17.7,9.4l0.2,0l0,0c0,0.3,0,0.5,0,0.7c-0.1,0.5,0,0.9,0.1,1.1
	l0,0h-0.2l0,0c-0.1-0.2-0.2-0.7,0-1.1C17.7,9.9,17.7,9.7,17.7,9.4z M22.3,10.6c0-0.5,0.3-0.9,0.8-0.9c0.5,0,0.8,0.4,0.8,0.9v0.1
	c0,0.5-0.3,0.9-0.8,0.9C22.6,11.6,22.3,11.2,22.3,10.6L22.3,10.6z M21.3,10.6c0,0-0.1,0-0.1,0l0,0l0.4-0.7h-0.8V9.7H22l-0.4,0.7
	c0.2,0,0.5,0.2,0.5,0.6c0,0.4-0.3,0.6-0.7,0.6c-0.3,0-0.5-0.2-0.6-0.4l0,0l0.2-0.1l0,0c0.1,0.2,0.2,0.3,0.4,0.3
	c0.2,0,0.4-0.1,0.4-0.4C21.8,10.8,21.6,10.6,21.3,10.6z M15.4,5.9c0.4-0.3,0.9-0.5,1.5-0.5c0.6,0,1.1,0.2,1.5,0.5
	c0.9,0,1.7,0.5,1.7,1.2c0,0.5-0.5,1-1.2,1.2v2.1h-0.5V8.3V8l0.4-0.1c0.5-0.1,0.8-0.4,0.8-0.7c0-0.4-0.6-0.8-1.2-0.8l-0.2,0l-0.1-0.1
	c-0.3-0.2-0.7-0.4-1.2-0.4c-0.5,0-0.9,0.1-1.2,0.4l-0.1,0.1l-0.2,0c-0.7,0-1.2,0.4-1.2,0.8c0,0.3,0.3,0.6,0.8,0.7L15.4,8v0.4v2.1
	h-0.5V8.3c-0.7-0.2-1.2-0.6-1.2-1.2C13.7,6.5,14.5,5.9,15.4,5.9z M12.2,9.7c0.3,0,0.6,0.3,0.6,0.6c0,0.3-0.2,0.5-0.3,0.7l0,0
	l-0.4,0.6h-0.3l0.5-0.7c0,0-0.1,0-0.1,0c-0.3,0-0.6-0.3-0.6-0.6C11.6,10,11.9,9.7,12.2,9.7z M10.6,9.9V9.7h0.5v1.9h-0.3V9.9H10.6z"
	/>
<path class="st0" d="M12.2,10.6c0.2,0,0.4-0.1,0.4-0.4c0-0.2-0.2-0.4-0.4-0.4c-0.2,0-0.4,0.1-0.4,0.4C11.9,10.5,12.1,10.6,12.2,10.6
	z"/>
<path class="st0" d="M23.1,11.4c0.3,0,0.5-0.3,0.5-0.7v-0.1c0-0.4-0.2-0.7-0.5-0.7c-0.3,0-0.5,0.3-0.5,0.7v0.1
	C22.6,11.1,22.8,11.4,23.1,11.4z"/>
</svg>
